<svg width="21" height="20" viewBox="0 0 21 20" fill="none" xmlns="http://www.w3.org/2000/svg">
<path d="M15.1335 11.001C15.8835 11.001 16.5435 10.591 16.8835 9.97098L20.4635 3.48098C20.8335 2.82098 20.3535 2.00098 19.5935 2.00098H4.7935L3.8535 0.000976562H0.583496V2.00098H2.5835L6.1835 9.59098L4.8335 12.031C4.1035 13.371 5.0635 15.001 6.5835 15.001H18.5835V13.001H6.5835L7.6835 11.001H15.1335ZM5.7435 4.00098H17.8935L15.1335 9.00098H8.1135L5.7435 4.00098ZM6.5835 16.001C5.4835 16.001 4.5935 16.901 4.5935 18.001C4.5935 19.101 5.4835 20.001 6.5835 20.001C7.6835 20.001 8.5835 19.101 8.5835 18.001C8.5835 16.901 7.6835 16.001 6.5835 16.001ZM16.5835 16.001C15.4835 16.001 14.5935 16.901 14.5935 18.001C14.5935 19.101 15.4835 20.001 16.5835 20.001C17.6835 20.001 18.5835 19.101 18.5835 18.001C18.5835 16.901 17.6835 16.001 16.5835 16.001Z" fill="#212121"/>
</svg>
